# xmcd
#
# Track frame offsets:
#       182
#       13090
#       24650
#       39020
#       50175
#       61920
#       74795
#       87670
#       100945
#       113060
#       124312
#       135695
#       146415
#       158875
#       169900
#       183612
#
# Disc length: 2595 seconds
#
# Revision: 4
# Processed by: cddbd v1.5.2PL0 Copyright (c) Steve Scherf et al.
# Submitted via: FreeDbEdit v0.1
#
DISCID=ec0a2110
DTITLE=Roy Orbison - The Big "O"
DYEAR=1900
DGENRE=Blues
TTITLE0=It's Over
TTITLE1=Blue Bayou
TTITLE2=Indian Wedding
TTITLE3=Falling
TTITLE4=Working for the Man
TTITLE5=Pretty Paper
TTITLE6=In Dreams
TTITLE7=Lonely Wine
TTITLE8=Shahdaroba
TTITLE9=No One Will Ever Know
TTITLE10=Sunset
TTITLE11=House Without Windows
TTITLE12=My Prayer
TTITLE13=All I Have to Do Is Dream
TTITLE14=The Great Pretender
TTITLE15=She Wears My Ring
EXTD=Rainbow Music Group\nRainbow Products Ltd, Sydney, Australia
EXTT0=
EXTT1=
EXTT2=
EXTT3=
EXTT4=
EXTT5=
EXTT6=
EXTT7=
EXTT8=
EXTT9=
EXTT10=
EXTT11=
EXTT12=
EXTT13=
EXTT14=
EXTT15=
PLAYORDER=
